<?xml version="1.0" encoding="UTF-8" standalone="no"?>
<!-- Created with Inkscape (http://www.inkscape.org/) -->

<svg
   xmlns:dc="http://purl.org/dc/elements/1.1/"
   xmlns:cc="http://creativecommons.org/ns#"
   xmlns:rdf="http://www.w3.org/1999/02/22-rdf-syntax-ns#"
   xmlns:svg="http://www.w3.org/2000/svg"
   xmlns="http://www.w3.org/2000/svg"
   xmlns:sodipodi="http://sodipodi.sourceforge.net/DTD/sodipodi-0.dtd"
   xmlns:inkscape="http://www.inkscape.org/namespaces/inkscape"
   id="svg2"
   version="1.1"
   inkscape:version="0.92.4 (unknown)"
   xml:space="preserve"
   width="164.68114mm"
   height="97.33036mm"
   viewBox="0 0 583.51582 344.87135"
   sodipodi:docname="simple_feature_types.svg"
   inkscape:export-filename="/home/michael/Dropbox/Courses/JS_2019/images/simple_feature_types.png"
   inkscape:export-xdpi="400"
   inkscape:export-ydpi="400"><metadata
     id="metadata8"><rdf:RDF><cc:Work
         rdf:about=""><dc:format>image/svg+xml</dc:format><dc:type
           rdf:resource="http://purl.org/dc/dcmitype/StillImage" /><dc:title /></cc:Work></rdf:RDF></metadata><defs
     id="defs6"><clipPath
   clipPathUnits="userSpaceOnUse"
   id="clipPath30"><path
     d="M 0,0 480,0 480,272 0,272 0,0 Z"
     id="path32"
     inkscape:connector-curvature="0" /></clipPath><clipPath
   clipPathUnits="userSpaceOnUse"
   id="clipPath40"><path
     d="M 0,0 489,0 489,288 0,288 0,0 Z"
     id="path42"
     inkscape:connector-curvature="0" /></clipPath><clipPath
   clipPathUnits="userSpaceOnUse"
   id="clipPath50"><path
     d="m 9.5,153.5 103.39,0 0,124.99 -103.39,0 0,-124.99 z"
     id="path52"
     inkscape:connector-curvature="0" /></clipPath><clipPath
   clipPathUnits="userSpaceOnUse"
   id="clipPath58"><path
     d="m 0,144 122.4,0 0,144 L 0,288 0,144 Z"
     id="path60"
     inkscape:connector-curvature="0" /></clipPath><clipPath
   clipPathUnits="userSpaceOnUse"
   id="clipPath70"><path
     d="m 9.5,153.5 103.39,0 0,124.99 -103.39,0 0,-124.99 z"
     id="path72"
     inkscape:connector-curvature="0" /></clipPath><clipPath
   clipPathUnits="userSpaceOnUse"
   id="clipPath80"><path
     d="m 131.9,153.5 103.39,0 0,124.99 -103.39,0 0,-124.99 z"
     id="path82"
     inkscape:connector-curvature="0" /></clipPath><clipPath
   clipPathUnits="userSpaceOnUse"
   id="clipPath88"><path
     d="m 122.4,144 122.4,0 0,144 -122.4,0 0,-144 z"
     id="path90"
     inkscape:connector-curvature="0" /></clipPath><clipPath
   clipPathUnits="userSpaceOnUse"
   id="clipPath100"><path
     d="m 131.9,153.5 103.39,0 0,124.99 -103.39,0 0,-124.99 z"
     id="path102"
     inkscape:connector-curvature="0" /></clipPath><clipPath
   clipPathUnits="userSpaceOnUse"
   id="clipPath110"><path
     d="m 254.3,153.5 103.39,0 0,124.99 -103.39,0 0,-124.99 z"
     id="path112"
     inkscape:connector-curvature="0" /></clipPath><clipPath
   clipPathUnits="userSpaceOnUse"
   id="clipPath118"><path
     d="m 244.8,144 122.4,0 0,144 -122.4,0 0,-144 z"
     id="path120"
     inkscape:connector-curvature="0" /></clipPath><clipPath
   clipPathUnits="userSpaceOnUse"
   id="clipPath130"><path
     d="m 254.3,153.5 103.39,0 0,124.99 -103.39,0 0,-124.99 z"
     id="path132"
     inkscape:connector-curvature="0" /></clipPath><clipPath
   clipPathUnits="userSpaceOnUse"
   id="clipPath140"><path
     d="m 376.7,153.5 103.39,0 0,124.99 -103.39,0 0,-124.99 z"
     id="path142"
     inkscape:connector-curvature="0" /></clipPath><clipPath
   clipPathUnits="userSpaceOnUse"
   id="clipPath148"><path
     d="m 367.2,144 122.4,0 0,144 -122.4,0 0,-144 z"
     id="path150"
     inkscape:connector-curvature="0" /></clipPath><clipPath
   clipPathUnits="userSpaceOnUse"
   id="clipPath156"><path
     d="m 9.5,9.5 103.39,0 0,124.99 -103.39,0 0,-124.99 z"
     id="path158"
     inkscape:connector-curvature="0" /></clipPath><clipPath
   clipPathUnits="userSpaceOnUse"
   id="clipPath164"><path
     d="m 0,0 122.4,0 0,144 L 0,144 0,0 Z"
     id="path166"
     inkscape:connector-curvature="0" /></clipPath><clipPath
   clipPathUnits="userSpaceOnUse"
   id="clipPath176"><path
     d="m 9.5,9.5 103.39,0 0,124.99 -103.39,0 0,-124.99 z"
     id="path178"
     inkscape:connector-curvature="0" /></clipPath><clipPath
   clipPathUnits="userSpaceOnUse"
   id="clipPath192"><path
     d="m 131.9,9.5 103.39,0 0,124.99 -103.39,0 0,-124.99 z"
     id="path194"
     inkscape:connector-curvature="0" /></clipPath><clipPath
   clipPathUnits="userSpaceOnUse"
   id="clipPath200"><path
     d="m 122.4,0 122.4,0 0,144 -122.4,0 0,-144 z"
     id="path202"
     inkscape:connector-curvature="0" /></clipPath><clipPath
   clipPathUnits="userSpaceOnUse"
   id="clipPath212"><path
     d="m 131.9,9.5 103.39,0 0,124.99 -103.39,0 0,-124.99 z"
     id="path214"
     inkscape:connector-curvature="0" /></clipPath><clipPath
   clipPathUnits="userSpaceOnUse"
   id="clipPath224"><path
     d="m 254.3,9.5 103.39,0 0,124.99 -103.39,0 0,-124.99 z"
     id="path226"
     inkscape:connector-curvature="0" /></clipPath><clipPath
   clipPathUnits="userSpaceOnUse"
   id="clipPath232"><path
     d="m 244.8,0 122.4,0 0,144 -122.4,0 0,-144 z"
     id="path234"
     inkscape:connector-curvature="0" /></clipPath><clipPath
   clipPathUnits="userSpaceOnUse"
   id="clipPath244"><path
     d="m 254.3,9.5 103.39,0 0,124.99 -103.39,0 0,-124.99 z"
     id="path246"
     inkscape:connector-curvature="0" /></clipPath><clipPath
   clipPathUnits="userSpaceOnUse"
   id="clipPath256"><path
     d="m 376.7,9.5 103.39,0 0,124.99 -103.39,0 0,-124.99 z"
     id="path258"
     inkscape:connector-curvature="0" /></clipPath><clipPath
   clipPathUnits="userSpaceOnUse"
   id="clipPath264"><path
     d="m 367.2,0 122.4,0 0,144 -122.4,0 0,-144 z"
     id="path266"
     inkscape:connector-curvature="0" /></clipPath><clipPath
   clipPathUnits="userSpaceOnUse"
   id="clipPath276"><path
     d="m 376.7,9.5 103.39,0 0,124.99 -103.39,0 0,-124.99 z"
     id="path278"
     inkscape:connector-curvature="0" /></clipPath>






</defs><sodipodi:namedview
     pagecolor="#ffffff"
     bordercolor="#666666"
     borderopacity="1"
     objecttolerance="10"
     gridtolerance="10"
     guidetolerance="10"
     inkscape:pageopacity="0"
     inkscape:pageshadow="2"
     inkscape:window-width="1853"
     inkscape:window-height="1018"
     id="namedview4"
     showgrid="false"
     inkscape:zoom="1.1129065"
     inkscape:cx="319.89969"
     inkscape:cy="130.56449"
     inkscape:window-x="67"
     inkscape:window-y="34"
     inkscape:window-maximized="1"
     inkscape:current-layer="g10"
     fit-margin-top="5"
     fit-margin-left="5"
     fit-margin-right="5"
     fit-margin-bottom="5"
     units="mm" /><g
     id="g10"
     inkscape:groupmode="layer"
     inkscape:label="R_Basel_2018_Intro_to_spatial"
     transform="matrix(1.25,0,0,-1.25,64.922082,349.24938)"><text
   transform="scale(1,-1)"
   style="font-style:normal;font-variant:normal;font-weight:bold;font-stretch:normal;font-size:9.99999977px;line-height:0%;font-family:monospace;-inkscape-font-specification:'monospace Bold';writing-mode:lr-tb;fill:#000000;fill-opacity:1;fill-rule:nonzero;stroke:none;stroke-width:0.91509175;"
   id="text62"
   x="-4.4367943"
   y="-258.44547"><tspan
     style="font-style:normal;font-variant:normal;font-weight:bold;font-stretch:normal;font-size:9.99999977px;line-height:1.25;font-family:monospace;-inkscape-font-specification:'monospace Bold';stroke-width:0.91509175;"
     sodipodi:role="line"
     id="tspan64"
     x="-4.4367943"
     y="-258.44547">Point</tspan></text>

<path
   d="m 6.6083633,200.19071 c 0,1.61056 1.3268831,2.93744 2.9374446,2.93744 1.6105611,0 2.9374451,-1.32688 2.9374451,-2.93744 0,-1.61057 -1.326884,-2.93745 -2.9374451,-2.93745 -1.6105615,0 -2.9374446,1.32688 -2.9374446,2.93745"
   style="fill:none;stroke:#0000ff;stroke-width:1.37263763;stroke-linecap:round;stroke-linejoin:round;stroke-miterlimit:10;stroke-dasharray:none;stroke-opacity:1"
   id="path74"
   inkscape:connector-curvature="0" /><text
   transform="scale(1,-1)"
   style="font-variant:normal;font-weight:bold;font-size:9.99999977px;line-height:0%;font-family:monospace;-inkscape-font-specification:'monospace Bold';writing-mode:lr-tb;fill:#000000;fill-opacity:1;fill-rule:nonzero;stroke:none;stroke-width:0.91509175;font-style:normal;font-stretch:normal;"
   id="text92"
   x="93.844063"
   y="-258.44547"><tspan
     style="font-size:9.99999977px;line-height:1.25;stroke-width:0.91509175;-inkscape-font-specification:'monospace Bold';font-family:monospace;font-weight:bold;font-style:normal;font-stretch:normal;font-variant:normal;"
     sodipodi:role="line"
     id="tspan94"
     x="93.844063"
     y="-258.44547">LineString</tspan></text>

<path
   d="m 136.15791,156.38526 -58.410312,58.41031 87.610892,29.20058"
   style="fill:none;stroke:#0000ff;stroke-width:1.37263763;stroke-linecap:round;stroke-linejoin:round;stroke-miterlimit:10;stroke-dasharray:none;stroke-opacity:1"
   id="path104"
   inkscape:connector-curvature="0" /><text
   transform="scale(1,-1)"
   style="font-variant:normal;font-weight:bold;font-size:9.99999977px;line-height:0%;font-family:monospace;-inkscape-font-specification:'monospace Bold';writing-mode:lr-tb;fill:#000000;fill-opacity:1;fill-rule:nonzero;stroke:none;stroke-width:0.91509175;font-style:normal;font-stretch:normal;"
   id="text122"
   x="211.23204"
   y="-258.44547"><tspan
     style="font-size:9.99999977px;line-height:1.25;stroke-width:0.91509175;-inkscape-font-specification:'monospace Bold';font-family:monospace;font-weight:bold;font-style:normal;font-stretch:normal;font-variant:normal;"
     sodipodi:role="line"
     id="tspan124"
     x="211.23204"
     y="-258.44547">Polygon</tspan></text>

<path
   d="m 252.32881,156.38526 25.03691,87.61089 -75.09243,-12.51846 -12.51846,-50.05552 z m -37.53707,50.06467 37.53707,12.50931 -12.50931,-37.53707 z"
   style="fill:#0000ff;fill-opacity:0.2;fill-rule:evenodd;stroke:#0000ff;stroke-width:1.37263763;stroke-linecap:round;stroke-linejoin:round;stroke-miterlimit:10;stroke-dasharray:none;stroke-opacity:1"
   id="path134"
   inkscape:connector-curvature="0" /><text
   transform="scale(1,-1)"
   style="font-variant:normal;font-weight:bold;font-size:9.99999977px;line-height:0%;font-family:monospace;-inkscape-font-specification:'monospace Bold';writing-mode:lr-tb;fill:#000000;fill-opacity:1;fill-rule:nonzero;stroke:none;stroke-width:0.91509175;font-style:normal;font-stretch:normal;"
   id="text168"
   x="-18.007607"
   y="-126.67223"><tspan
     style="font-size:9.99999977px;line-height:1.25;stroke-width:0.91509175;-inkscape-font-specification:'monospace Bold';font-family:monospace;font-weight:bold;font-style:normal;font-stretch:normal;font-variant:normal;"
     sodipodi:role="line"
     id="tspan170"
     x="-18.007607"
     y="-126.67223">MultiPoint</tspan></text>

<path
   d="m -37.187929,112.22293 c 0,1.61056 1.317732,2.9283 2.928293,2.9283 1.619713,0 2.937445,-1.31774 2.937445,-2.9283 0,-1.61971 -1.317732,-2.93744 -2.937445,-2.93744 -1.610561,0 -2.928293,1.31773 -2.928293,2.93744"
   style="fill:none;stroke:#0000ff;stroke-width:1.37263763;stroke-linecap:round;stroke-linejoin:round;stroke-miterlimit:10;stroke-dasharray:none;stroke-opacity:1"
   id="path180"
   inkscape:connector-curvature="0" /><path
   d="m 50.413807,83.022354 c 0,1.610562 1.317732,2.928294 2.937444,2.928294 1.610562,0 2.928294,-1.317732 2.928294,-2.928294 0,-1.619712 -1.317732,-2.937444 -2.928294,-2.937444 -1.619712,0 -2.937444,1.317732 -2.937444,2.937444"
   style="fill:none;stroke:#0000ff;stroke-width:1.37263763;stroke-linecap:round;stroke-linejoin:round;stroke-miterlimit:10;stroke-dasharray:none;stroke-opacity:1"
   id="path182"
   inkscape:connector-curvature="0" /><path
   d="m -7.9873506,53.812625 c 0,1.619712 1.3177322,2.937444 2.9282937,2.937444 1.6197125,0 2.9374446,-1.317732 2.9374446,-2.937444 0,-1.610562 -1.3177321,-2.928294 -2.9374446,-2.928294 -1.6105615,0 -2.9282937,1.317732 -2.9282937,2.928294"
   style="fill:none;stroke:#0000ff;stroke-width:1.37263763;stroke-linecap:round;stroke-linejoin:round;stroke-miterlimit:10;stroke-dasharray:none;stroke-opacity:1"
   id="path184"
   inkscape:connector-curvature="0" /><path
   d="m 21.213228,24.612046 c 0,1.619713 1.317732,2.937445 2.937445,2.937445 1.610561,0 2.928293,-1.317732 2.928293,-2.937445 0,-1.610561 -1.317732,-2.928294 -2.928293,-2.928294 -1.619713,0 -2.937445,1.317733 -2.937445,2.928294"
   style="fill:none;stroke:#0000ff;stroke-width:1.37263763;stroke-linecap:round;stroke-linejoin:round;stroke-miterlimit:10;stroke-dasharray:none;stroke-opacity:1"
   id="path186"
   inkscape:connector-curvature="0" /><text
   transform="scale(1,-1)"
   style="font-variant:normal;font-weight:bold;font-size:9.99999977px;line-height:0%;font-family:monospace;-inkscape-font-specification:'monospace Bold';writing-mode:lr-tb;fill:#000000;fill-opacity:1;fill-rule:nonzero;stroke:none;stroke-width:0.91509175;font-style:normal;font-stretch:normal;"
   id="text204"
   x="80.282402"
   y="-126.67223"><tspan
     style="font-size:9.99999977px;line-height:1.25;stroke-width:0.91509175;-inkscape-font-specification:'monospace Bold';font-family:monospace;font-weight:bold;font-style:normal;font-stretch:normal;font-variant:normal;"
     sodipodi:role="line"
     id="tspan206"
     x="80.282402"
     y="-126.67223">MultiLineString</tspan></text>

<path
   d="M 77.747598,24.612046 106.94818,53.812625 77.747598,112.22293"
   style="fill:none;stroke:#0000ff;stroke-width:1.37263763;stroke-linecap:round;stroke-linejoin:round;stroke-miterlimit:10;stroke-dasharray:none;stroke-opacity:1"
   id="path216"
   inkscape:connector-curvature="0" /><path
   d="M 165.35849,112.22293 136.15791,83.022354 165.35849,53.812625 136.15791,24.612046"
   style="fill:none;stroke:#0000ff;stroke-width:1.37263763;stroke-linecap:round;stroke-linejoin:round;stroke-miterlimit:10;stroke-dasharray:none;stroke-opacity:1"
   id="path218"
   inkscape:connector-curvature="0" /><text
   transform="scale(1,-1)"
   style="font-variant:normal;font-weight:bold;font-size:9.99999977px;line-height:0%;font-family:monospace;-inkscape-font-specification:'monospace Bold';writing-mode:lr-tb;fill:#000000;fill-opacity:1;fill-rule:nonzero;stroke:none;stroke-width:0.91509175;font-style:normal;font-stretch:normal;"
   id="text236"
   x="197.66122"
   y="-126.67223"><tspan
     style="font-size:9.99999977px;line-height:1.25;stroke-width:0.91509175;-inkscape-font-specification:'monospace Bold';font-family:monospace;font-weight:bold;font-style:normal;font-stretch:normal;font-variant:normal;"
     sodipodi:role="line"
     id="tspan238"
     x="197.66122"
     y="-126.67223">MultiPolygon</tspan></text>

<path
   d="m 264.84726,105.96371 -50.05552,12.5093 62.57398,-37.537065 z"
   style="fill:#0000ff;fill-opacity:0.2;fill-rule:evenodd;stroke:#0000ff;stroke-width:1.37263763;stroke-linecap:round;stroke-linejoin:round;stroke-miterlimit:10;stroke-dasharray:none;stroke-opacity:1"
   id="path248"
   inkscape:connector-curvature="0" /><path
   d="M 214.79174,93.44525 189.75483,80.935945 V 30.871274 L 239.8195,18.361969 277.36572,55.899034 Z M 239.8195,55.899034 214.79174,43.389729 V 68.41749 Z"
   style="fill:#0000ff;fill-opacity:0.2;fill-rule:evenodd;stroke:#0000ff;stroke-width:1.37263763;stroke-linecap:round;stroke-linejoin:round;stroke-miterlimit:10;stroke-dasharray:none;stroke-opacity:1"
   id="path250"
   inkscape:connector-curvature="0" /><text
   transform="scale(1,-1)"
   style="font-variant:normal;font-weight:bold;font-size:9.99999977px;line-height:0%;font-family:monospace;-inkscape-font-specification:'monospace Bold';writing-mode:lr-tb;fill:#000000;fill-opacity:1;fill-rule:nonzero;stroke:none;stroke-width:0.91509175;font-style:normal;font-stretch:normal;"
   id="text268"
   x="289.86588"
   y="-126.67223"><tspan
     style="font-size:9.99999977px;line-height:1.25;stroke-width:0.91509175;-inkscape-font-specification:'monospace Bold';font-family:monospace;font-weight:bold;font-style:normal;font-stretch:normal;font-variant:normal;"
     sodipodi:role="line"
     id="tspan270"
     x="289.86588"
     y="-126.67223">GeometryCollection</tspan></text>

<path
   d="m 351.82674,55.899034 37.54621,50.064676 h -87.61088 z"
   style="fill:#0000ff;fill-opacity:0.2;fill-rule:evenodd;stroke:#0000ff;stroke-width:1.37263763;stroke-linecap:round;stroke-linejoin:round;stroke-miterlimit:10;stroke-dasharray:none;stroke-opacity:1"
   id="path280"
   inkscape:connector-curvature="0" /><path
   d="m 301.76207,30.871274 25.03691,25.02776 -25.03691,25.036911"
   style="fill:none;stroke:#0000ff;stroke-width:1.37263763;stroke-linecap:round;stroke-linejoin:round;stroke-miterlimit:10;stroke-dasharray:none;stroke-opacity:1"
   id="path282"
   inkscape:connector-curvature="0" /><path
   d="m 373.91705,55.899034 c 0,1.619713 1.32689,2.937445 2.93745,2.937445 1.61056,0 2.93744,-1.317732 2.93744,-2.937445 0,-1.610561 -1.32688,-2.928294 -2.93744,-2.928294 -1.61056,0 -2.93745,1.317733 -2.93745,2.928294"
   style="fill:none;stroke:#0000ff;stroke-width:1.37263763;stroke-linecap:round;stroke-linejoin:round;stroke-miterlimit:10;stroke-dasharray:none;stroke-opacity:1"
   id="path284"
   inkscape:connector-curvature="0" /></g></svg>